<svg width="46" height="46" viewBox="0 0 46 46" fill="none" xmlns="http://www.w3.org/2000/svg">
<g style="mix-blend-mode:multiply">
<rect x="3" y="3" width="40" height="40" rx="20" fill="#D0D9EA"/>
<rect x="3" y="3" width="40" height="40" rx="20" stroke="#E8ECF4" stroke-width="6"/>
<path d="M23.8335 14.6667L16.4114 23.5732C16.1207 23.922 15.9754 24.0964 15.9732 24.2437C15.9713 24.3718 16.0283 24.4936 16.1279 24.5741C16.2425 24.6667 16.4695 24.6667 16.9236 24.6667H23.0002L22.1669 31.3333L29.589 22.4268C29.8797 22.078 30.025 21.9036 30.0272 21.7563C30.0292 21.6282 29.9721 21.5064 29.8725 21.4259C29.7579 21.3333 29.5309 21.3333 29.0768 21.3333H23.0002L23.8335 14.6667Z" stroke="#123476" stroke-width="1.66667" stroke-linecap="round" stroke-linejoin="round"/>
</g>
</svg>
