<svg width="25" height="24" viewBox="0 0 25 24" fill="none" xmlns="http://www.w3.org/2000/svg">
<path d="M13.75 5C13.75 6.10457 11.2876 7 8.25 7C5.21243 7 2.75 6.10457 2.75 5M13.75 5C13.75 3.89543 11.2876 3 8.25 3C5.21243 3 2.75 3.89543 2.75 5M13.75 5V6.5M2.75 5V17C2.75 18.1046 5.21243 19 8.25 19M8.25 11C8.08145 11 7.91468 10.9972 7.75 10.9918C4.94675 10.9 2.75 10.0433 2.75 9M8.25 15C5.21243 15 2.75 14.1046 2.75 13M22.75 11.5C22.75 12.6046 20.2876 13.5 17.25 13.5C14.2124 13.5 11.75 12.6046 11.75 11.5M22.75 11.5C22.75 10.3954 20.2876 9.5 17.25 9.5C14.2124 9.5 11.75 10.3954 11.75 11.5M22.75 11.5V19C22.75 20.1046 20.2876 21 17.25 21C14.2124 21 11.75 20.1046 11.75 19V11.5M22.75 15.25C22.75 16.3546 20.2876 17.25 17.25 17.25C14.2124 17.25 11.75 16.3546 11.75 15.25" stroke="black" stroke-width="2" stroke-linecap="round" stroke-linejoin="round"/>
</svg>
