<svg width="22" height="22" viewBox="0 0 22 22" fill="none" xmlns="http://www.w3.org/2000/svg">
<path d="M14.6654 16.4987L17.4154 19.2487M17.4154 19.2487L20.1654 16.4987M17.4154 19.2487V13.7487M20.1654 9.16536H1.83203M20.1654 10.9987V7.51537C20.1654 6.4886 20.1654 5.97522 19.9655 5.58305C19.7898 5.23809 19.5093 4.95762 19.1643 4.78185C18.7722 4.58203 18.2588 4.58203 17.232 4.58203H4.76537C3.7386 4.58203 3.22522 4.58203 2.83305 4.78185C2.48809 4.95762 2.20762 5.23808 2.03185 5.58305C1.83203 5.97522 1.83203 6.4886 1.83203 7.51536V14.482C1.83203 15.5088 1.83203 16.0222 2.03185 16.4143C2.20762 16.7593 2.48808 17.0398 2.83305 17.2155C3.22522 17.4154 3.7386 17.4154 4.76536 17.4154H10.9987" stroke="#0065D1" stroke-width="1.75" stroke-linecap="round" stroke-linejoin="round"/>
</svg>
