<svg width="40" height="40" viewBox="0 0 40 40" fill="none" xmlns="http://www.w3.org/2000/svg">
<g filter="url(#filter0_ddd_57886_12812)">
<g clip-path="url(#clip0_57886_12812)">
<rect x="4" y="4" width="32" height="32" rx="16" fill="#FEF0C7"/>
<path d="M19.9982 17.5002V20.8335M19.9982 24.1669H20.0065M18.8443 13.2433L11.9902 25.0821C11.61 25.7388 11.4199 26.0671 11.448 26.3366C11.4725 26.5716 11.5957 26.7852 11.7868 26.9242C12.0059 27.0835 12.3853 27.0835 13.1441 27.0835H26.8522C27.611 27.0835 27.9904 27.0835 28.2095 26.9242C28.4007 26.7852 28.5238 26.5716 28.5483 26.3366C28.5764 26.0671 28.3863 25.7388 28.0061 25.0821L21.1521 13.2433C20.7733 12.589 20.5839 12.2618 20.3368 12.152C20.1212 12.0561 19.8751 12.0561 19.6596 12.152C19.4125 12.2618 19.2231 12.589 18.8443 13.2433Z" stroke="#93370D" stroke-width="1.66667" stroke-linecap="round" stroke-linejoin="round"/>
</g>
</g>
<defs>
<filter id="filter0_ddd_57886_12812" x="0" y="0" width="40" height="40" filterUnits="userSpaceOnUse" color-interpolation-filters="sRGB">
<feFlood flood-opacity="0" result="BackgroundImageFix"/>
<feColorMatrix in="SourceAlpha" type="matrix" values="0 0 0 0 0 0 0 0 0 0 0 0 0 0 0 0 0 0 127 0" result="hardAlpha"/>
<feMorphology radius="4" operator="dilate" in="SourceAlpha" result="effect1_dropShadow_57886_12812"/>
<feOffset/>
<feColorMatrix type="matrix" values="0 0 0 0 1 0 0 0 0 0.980392 0 0 0 0 0.921569 0 0 0 1 0"/>
<feBlend mode="normal" in2="BackgroundImageFix" result="effect1_dropShadow_57886_12812"/>
<feColorMatrix in="SourceAlpha" type="matrix" values="0 0 0 0 0 0 0 0 0 0 0 0 0 0 0 0 0 0 127 0" result="hardAlpha"/>
<feOffset dy="1"/>
<feGaussianBlur stdDeviation="1"/>
<feColorMatrix type="matrix" values="0 0 0 0 0.0627451 0 0 0 0 0.0941176 0 0 0 0 0.156863 0 0 0 0.06 0"/>
<feBlend mode="normal" in2="effect1_dropShadow_57886_12812" result="effect2_dropShadow_57886_12812"/>
<feColorMatrix in="SourceAlpha" type="matrix" values="0 0 0 0 0 0 0 0 0 0 0 0 0 0 0 0 0 0 127 0" result="hardAlpha"/>
<feOffset dy="1"/>
<feGaussianBlur stdDeviation="1.5"/>
<feColorMatrix type="matrix" values="0 0 0 0 0.0627451 0 0 0 0 0.0941176 0 0 0 0 0.156863 0 0 0 0.1 0"/>
<feBlend mode="normal" in2="effect2_dropShadow_57886_12812" result="effect3_dropShadow_57886_12812"/>
<feBlend mode="normal" in="SourceGraphic" in2="effect3_dropShadow_57886_12812" result="shape"/>
</filter>
<clipPath id="clip0_57886_12812">
<rect x="4" y="4" width="32" height="32" rx="16" fill="white"/>
</clipPath>
</defs>
</svg>
