<svg width="20" height="20" viewBox="0 0 20 20" fill="none" xmlns="http://www.w3.org/2000/svg">
<path d="M11.6654 1.89128V5.3334C11.6654 5.80011 11.6654 6.03346 11.7562 6.21172C11.8361 6.36853 11.9636 6.49601 12.1204 6.5759C12.2986 6.66673 12.532 6.66673 12.9987 6.66673H16.4408M13.332 10.8333H6.66536M13.332 14.1667H6.66536M8.33203 7.50001H6.66536M11.6654 1.66667H7.33203C5.9319 1.66667 5.23183 1.66667 4.69705 1.93916C4.22665 2.17884 3.8442 2.56129 3.60451 3.0317C3.33203 3.56647 3.33203 4.26654 3.33203 5.66667V14.3333C3.33203 15.7335 3.33203 16.4335 3.60451 16.9683C3.8442 17.4387 4.22665 17.8212 4.69705 18.0609C5.23183 18.3333 5.9319 18.3333 7.33203 18.3333H12.6654C14.0655 18.3333 14.7656 18.3333 15.3003 18.0609C15.7707 17.8212 16.1532 17.4387 16.3929 16.9683C16.6654 16.4335 16.6654 15.7335 16.6654 14.3333V6.66667L11.6654 1.66667Z" stroke="#344054" stroke-width="1.66667" stroke-linecap="round" stroke-linejoin="round"/>
</svg>
