<svg width="20" height="20" viewBox="0 0 20 20" fill="none" xmlns="http://www.w3.org/2000/svg">
<path d="M15.0001 5.83335V4.33335C15.0001 3.39993 15.0001 2.93322 14.8184 2.5767C14.6586 2.2631 14.4037 2.00813 14.0901 1.84834C13.7335 1.66669 13.2668 1.66669 12.3334 1.66669H7.66675C6.73333 1.66669 6.26662 1.66669 5.9101 1.84834C5.59649 2.00813 5.34153 2.2631 5.18174 2.5767C5.00008 2.93322 5.00008 3.39993 5.00008 4.33335V5.83335M5.00008 15C4.22511 15 3.83762 15 3.5197 14.9148C2.65697 14.6837 1.9831 14.0098 1.75193 13.1471C1.66675 12.8292 1.66675 12.4417 1.66675 11.6667V9.83335C1.66675 8.43322 1.66675 7.73316 1.93923 7.19838C2.17892 6.72797 2.56137 6.34552 3.03177 6.10584C3.56655 5.83335 4.26662 5.83335 5.66675 5.83335H14.3334C15.7335 5.83335 16.4336 5.83335 16.9684 6.10584C17.4388 6.34552 17.8212 6.72797 18.0609 7.19838C18.3334 7.73316 18.3334 8.43322 18.3334 9.83335V11.6667C18.3334 12.4417 18.3334 12.8292 18.2482 13.1471C18.0171 14.0098 17.3432 14.6837 16.4805 14.9148C16.1625 15 15.7751 15 15.0001 15M12.5001 8.75002H15.0001M7.66675 18.3334H12.3334C13.2668 18.3334 13.7335 18.3334 14.0901 18.1517C14.4037 17.9919 14.6586 17.7369 14.8184 17.4233C15.0001 17.0668 15.0001 16.6001 15.0001 15.6667V14.3334C15.0001 13.3999 15.0001 12.9332 14.8184 12.5767C14.6586 12.2631 14.4037 12.0081 14.0901 11.8483C13.7335 11.6667 13.2668 11.6667 12.3334 11.6667H7.66675C6.73333 11.6667 6.26662 11.6667 5.9101 11.8483C5.59649 12.0081 5.34153 12.2631 5.18174 12.5767C5.00008 12.9332 5.00008 13.3999 5.00008 14.3334V15.6667C5.00008 16.6001 5.00008 17.0668 5.18174 17.4233C5.34153 17.7369 5.59649 17.9919 5.9101 18.1517C6.26662 18.3334 6.73333 18.3334 7.66675 18.3334Z" stroke="#003975" stroke-width="1.66667" stroke-linecap="round" stroke-linejoin="round"/>
</svg>
