<svg width="34" height="34" viewBox="0 0 34 34" fill="none" xmlns="http://www.w3.org/2000/svg">
<path d="M14.9225 3.56578L8.06124 6.13702C6.47999 6.72827 5.1875 8.59826 5.1875 10.2895V20.5057C5.1875 22.1282 6.26002 24.2595 7.56627 25.2358L13.4787 29.6495C15.4175 31.107 18.6075 31.107 20.5462 29.6495L26.4588 25.2358C27.765 24.2595 28.8375 22.1282 28.8375 20.5057V10.2895C28.8375 8.59826 27.545 6.72827 25.9637 6.13702L19.1025 3.56578C17.9337 3.13953 16.0637 3.13953 14.9225 3.56578Z" stroke="white" stroke-width="2.0625" stroke-linecap="round" stroke-linejoin="round"/>
<path d="M16.9986 15.5119C16.9436 15.5119 16.8748 15.5119 16.8198 15.5119C15.5273 15.4707 14.4961 14.3981 14.4961 13.0919C14.4961 11.7581 15.5824 10.6719 16.9161 10.6719C18.2499 10.6719 19.3361 11.7581 19.3361 13.0919C19.3224 14.4119 18.2911 15.4707 16.9986 15.5119Z" stroke="white" stroke-width="2.0625" stroke-linecap="round" stroke-linejoin="round"/>
<path d="M14.2634 19.3622C12.9434 20.2422 12.9434 21.6859 14.2634 22.5659C15.7622 23.5697 18.2234 23.5697 19.7222 22.5659C21.0422 21.6859 21.0422 20.2422 19.7222 19.3622C18.2372 18.3584 15.7759 18.3584 14.2634 19.3622Z" stroke="white" stroke-width="2.0625" stroke-linecap="round" stroke-linejoin="round"/>
</svg>
