<svg width="63" height="63" viewBox="0 0 63 63" fill="none" xmlns="http://www.w3.org/2000/svg">
    <path d="M57.75 31.5C57.75 17.01 45.99 5.25 31.5 5.25C17.01 5.25 5.25 17.01 5.25 31.5C5.25 45.99 17.01 57.75 31.5 57.75" stroke="#ea3a3d" stroke-width="3.9375" stroke-linecap="round" stroke-linejoin="round"/>
    <path d="M20.9992 7.875H23.6242C18.5055 23.205 18.5055 39.795 23.6242 55.125H20.9992" stroke="#ea3a3d" stroke-width="3.9375" stroke-linecap="round" stroke-linejoin="round"/>
    <path d="M39.375 7.875C41.9213 15.54 43.2075 23.52 43.2075 31.5" stroke="#ea3a3d" stroke-width="3.9375" stroke-linecap="round" stroke-linejoin="round"/>
    <path d="M7.875 42V39.375C15.54 41.9213 23.52 43.2076 31.5 43.2076" stroke="#ea3a3d" stroke-width="3.9375" stroke-linecap="round" stroke-linejoin="round"/>
    <path d="M7.875 23.6242C23.205 18.5055 39.795 18.5055 55.125 23.6242" stroke="#ea3a3d" stroke-width="3.9375" stroke-linecap="round" stroke-linejoin="round"/>
    <path d="M59.2734 48.7656C59.2734 49.6056 59.1685 50.4194 58.9585 51.2069C58.7222 52.2569 58.3022 53.2806 57.751 54.1731C55.9397 57.2181 52.6059 59.2656 48.7734 59.2656C46.0697 59.2656 43.6284 58.2418 41.7909 56.5618C41.0034 55.8793 40.3209 55.0656 39.7959 54.1731C38.8247 52.5981 38.2734 50.7344 38.2734 48.7656C38.2734 45.9306 39.4022 43.3319 41.2397 41.4419C43.156 39.4732 45.8334 38.2656 48.7734 38.2656C51.8709 38.2656 54.6797 39.6044 56.5697 41.7569C58.2497 43.6207 59.2734 46.0881 59.2734 48.7656Z" stroke="#ea3a3d" stroke-width="3.9375" stroke-miterlimit="10" stroke-linecap="round" stroke-linejoin="round"/>
    <path d="M51.4801 45.9844L45.9414 51.5231" stroke="#ea3a3d" stroke-width="3.9375" stroke-miterlimit="10" stroke-linecap="round" stroke-linejoin="round"/>
    <path d="M45.9922 46.0352L51.5572 51.5739" stroke="#ea3a3d" stroke-width="3.9375" stroke-miterlimit="10" stroke-linecap="round" stroke-linejoin="round"/>
</svg>
