<svg width="16" height="16" viewBox="0 0 16 16" fill="none" xmlns="http://www.w3.org/2000/svg">
<path d="M7.99967 1.33333L9.34098 4.82072C9.52899 5.30954 9.62299 5.55395 9.76917 5.75954C9.89873 5.94175 10.0579 6.10094 10.2401 6.2305C10.4457 6.37668 10.6901 6.47069 11.179 6.6587L14.6663 8L11.179 9.3413C10.6901 9.52931 10.4457 9.62331 10.2401 9.7695C10.0579 9.89906 9.89873 10.0583 9.76917 10.2405C9.62299 10.446 9.52899 10.6905 9.34098 11.1793L7.99968 14.6667L6.65837 11.1793C6.47036 10.6905 6.37636 10.446 6.23018 10.2405C6.10062 10.0583 5.94142 9.89906 5.75921 9.7695C5.55363 9.62331 5.30922 9.52931 4.8204 9.3413L1.33301 8L4.8204 6.6587C5.30922 6.47069 5.55363 6.37668 5.75921 6.2305C5.94142 6.10094 6.10062 5.94175 6.23018 5.75954C6.37636 5.55395 6.47036 5.30954 6.65837 4.82072L7.99967 1.33333Z" stroke="#101828" stroke-width="1.5" stroke-linecap="round" stroke-linejoin="round"/>
</svg>
