<svg width="25" height="24" viewBox="0 0 25 24" fill="none" xmlns="http://www.w3.org/2000/svg">
<path d="M18.2453 16C19.0362 14.8661 19.5 13.4872 19.5 12C19.5 11.4851 19.4444 10.9832 19.3389 10.5M6.75469 16C5.96381 14.8662 5.5 13.4872 5.5 12C5.5 8.13401 8.63401 5 12.5 5C12.9221 5 13.3355 5.03737 13.7371 5.10897M16.9999 7.5L12.4999 12M22.5 12C22.5 17.5228 18.0228 22 12.5 22C6.97715 22 2.5 17.5228 2.5 12C2.5 6.47715 6.97715 2 12.5 2C18.0228 2 22.5 6.47715 22.5 12ZM13.5 12C13.5 12.5523 13.0523 13 12.5 13C11.9477 13 11.5 12.5523 11.5 12C11.5 11.4477 11.9477 11 12.5 11C13.0523 11 13.5 11.4477 13.5 12Z" stroke="black" stroke-width="2" stroke-linecap="round" stroke-linejoin="round"/>
</svg>
