<svg width="20" height="21" viewBox="0 0 20 21" fill="none" xmlns="http://www.w3.org/2000/svg">
<path d="M17.5 5.02604C14.725 4.75104 11.9333 4.60938 9.15 4.60938C7.5 4.60938 5.85 4.69271 4.2 4.85938L2.5 5.02604" stroke="#344054" stroke-width="1.5" stroke-linecap="round" stroke-linejoin="round"/>
<path d="M7.08203 4.18594L7.26536 3.09427C7.3987 2.3026 7.4987 1.71094 8.90703 1.71094H11.0904C12.4987 1.71094 12.607 2.33594 12.732 3.1026L12.9154 4.18594" stroke="#344054" stroke-width="1.5" stroke-linecap="round" stroke-linejoin="round"/>
<path d="M15.7096 7.66016L15.168 16.0518C15.0763 17.3602 15.0013 18.3768 12.6763 18.3768H7.3263C5.0013 18.3768 4.9263 17.3602 4.83464 16.0518L4.29297 7.66016" stroke="#344054" stroke-width="1.5" stroke-linecap="round" stroke-linejoin="round"/>
<path d="M8.60938 13.793H11.3844" stroke="#344054" stroke-width="1.5" stroke-linecap="round" stroke-linejoin="round"/>
<path d="M7.91797 10.4609H12.0846" stroke="#344054" stroke-width="1.5" stroke-linecap="round" stroke-linejoin="round"/>
</svg>
