<svg width="63" height="63" viewBox="0 0 63 63" fill="none" xmlns="http://www.w3.org/2000/svg">
<path d="M39.1125 5.25H23.8875C22.1025 5.25 19.5825 6.30001 18.3225 7.56001L7.56001 18.3225C6.30001 19.5825 5.25 22.1025 5.25 23.8875V39.1125C5.25 40.8975 6.30001 43.4175 7.56001 44.6775L18.3225 55.44C19.5825 56.7 22.1025 57.75 23.8875 57.75H39.1125C40.8975 57.75 43.4175 56.7 44.6775 55.44L55.44 44.6775C56.7 43.4175 57.75 40.8975 57.75 39.1125V23.8875C57.75 22.1025 56.7 19.5825 55.44 18.3225L44.6775 7.56001C43.4175 6.30001 40.8975 5.25 39.1125 5.25Z" stroke="#EA3A3D" stroke-width="3.9375" stroke-linecap="round" stroke-linejoin="round"/>
<path d="M12.9675 50.085L50.085 12.9675" stroke="#EA3A3D" stroke-width="3.9375" stroke-linecap="round" stroke-linejoin="round"/>
<path d="M18.1554 35.0252L21.4781 24H24.841L19.7362 38.66H16.5847L11.5 24H14.8529L18.1554 35.0252Z" fill="#EA3A3D"/>
<path d="M29.2511 33.4948V38.66H26.2305V24H31.9495C32.8154 24 33.5873 24.1208 34.2653 24.3625C34.95 24.6041 35.5272 24.9431 35.9971 25.3794C36.4737 25.809 36.8362 26.3225 37.0845 26.9199C37.3329 27.5106 37.4571 28.155 37.4571 28.8531C37.4571 29.5646 37.3329 30.2057 37.0845 30.7762C36.8362 31.3468 36.4737 31.8334 35.9971 32.2362C35.5272 32.6389 34.95 32.9511 34.2653 33.1726C33.5873 33.3874 32.8154 33.4948 31.9495 33.4948H29.2511ZM29.2511 31.0481H31.9495C32.3791 31.0481 32.7483 30.9944 33.057 30.887C33.3725 30.7796 33.6276 30.6319 33.8223 30.444C34.0236 30.2493 34.1713 30.0177 34.2653 29.7492C34.3593 29.4807 34.4063 29.1887 34.4063 28.8732C34.4063 28.5578 34.3593 28.2557 34.2653 27.9671C34.1713 27.6717 34.0236 27.4133 33.8223 27.1918C33.6276 26.9635 33.3725 26.7823 33.057 26.6481C32.7483 26.5138 32.3791 26.4467 31.9495 26.4467H29.2511V31.0481Z" fill="#EA3A3D"/>
<path d="M51.4626 38.66H48.442L42.5619 29.0142V38.66H39.5413V24H42.5619L48.4521 33.6659V24H51.4626V38.66Z" fill="#EA3A3D"/>
<path d="M29.2511 31.0481H31.9495C32.3791 31.0481 32.7483 30.9944 33.057 30.887C33.3725 30.7796 33.6276 30.6319 33.8223 30.444C34.0236 30.2493 34.1713 30.0177 34.2653 29.7492C34.3593 29.4807 34.4063 29.1887 34.4063 28.8732C34.4063 28.5578 34.3593 28.2557 34.2653 27.9671C34.1713 27.6717 34.0236 27.4133 33.8223 27.1918C33.6276 26.9635 33.3725 26.7823 33.057 26.6481C32.7483 26.5138 32.3791 26.4467 31.9495 26.4467H29.2511V31.0481Z" fill="#F9D2D9"/>
<path d="M15.4111 23.25L15.5713 23.7852L18.1572 32.418L20.7598 23.7832L20.9209 23.25H31.9492C32.883 23.25 33.742 23.3802 34.5146 23.6553C35.2833 23.9266 35.9534 24.3153 36.5078 24.8301H36.5068C37.0621 25.3327 37.4871 25.9342 37.7764 26.6289L37.8779 26.8906C38.0994 27.5066 38.207 28.1632 38.207 28.8535C38.207 29.653 38.0672 30.3978 37.7725 31.0752C37.4787 31.75 37.0467 32.3285 36.4844 32.8047C35.9279 33.2817 35.26 33.6386 34.4961 33.8857L34.4922 33.8877C33.727 34.1301 32.8759 34.2451 31.9492 34.2451H30.001V39.4102H25.4805V24.4434L20.4443 38.9062L20.2695 39.4102H16.0508L15.876 38.9062L10.791 24.2461L10.4463 23.25H15.4111ZM42.9834 23.25L43.2021 23.6094L47.7021 30.9932V23.25H52.2129V39.4102H48.0205L47.8018 39.0508L43.3115 31.6836V39.4102H38.791V23.25H42.9834Z" stroke="#F9D2D9" stroke-width="1.5"/>
</svg>
